<svg xmlns="http://www.w3.org/2000/svg" viewBox="0 0 225 150">
  <rect width="225" height="150" fill="#FFFFFF"/>
  <rect width="225" height="30" y="60" fill="#FF0000"/>
  <rect width="30" height="150" x="97.5" fill="#FF0000"/>
  <path d="M50,40 L50,20 L30,20 L30,40 L10,40 L10,60 L30,60 L30,80 L50,80 L50,60 L70,60 L70,40 Z" fill="#FF0000"/>
  <path d="M175,40 L175,20 L155,20 L155,40 L135,40 L135,60 L155,60 L155,80 L175,80 L175,60 L195,60 L195,40 Z" fill="#FF0000"/>
  <path d="M50,110 L50,90 L30,90 L30,110 L10,110 L10,130 L30,130 L30,150 L50,150 L50,130 L70,130 L70,110 Z" fill="#FF0000"/>
  <path d="M175,110 L175,90 L155,90 L155,110 L135,110 L135,130 L155,130 L155,150 L175,150 L175,130 L195,130 L195,110 Z" fill="#FF0000"/>
</svg>
