<svg xmlns="http://www.w3.org/2000/svg" viewBox="0 0 225 150">
  <rect width="225" height="30" y="0" fill="#00A3E0"/>
  <rect width="225" height="30" y="30" fill="#FFFFFF"/>
  <rect width="225" height="30" y="60" fill="#00A3E0"/>
  <rect width="225" height="30" y="90" fill="#FFFFFF"/>
  <rect width="225" height="30" y="120" fill="#00A3E0"/>
  <rect width="60" height="60" x="0" y="0" fill="#00A3E0"/>
  <circle cx="30" cy="30" r="15" fill="#FFFFFF"/>
  <circle cx="33" cy="27" r="15" fill="#00A3E0"/>
  <g fill="#FFFFFF">
    <polygon points="30,20 32,25 38,25 33,28 35,33 30,30 25,33 27,28 22,25 28,25"/>
    <polygon points="45,30 46,33 49,33 47,35 48,38 45,36 42,38 43,35 41,33 44,33"/>
    <polygon points="45,14 46,17 49,17 47,19 48,22 45,20 42,22 43,19 41,17 44,17"/>
    <polygon points="15,14 16,17 19,17 17,19 18,22 15,20 12,22 13,19 11,17 14,17"/>
    <polygon points="15,30 16,33 19,33 17,35 18,38 15,36 12,38 13,35 11,33 14,33"/>
  </g>
</svg>
